{
	"patcher" : 	{
		"fileversion" : 1,
		"appversion" : 		{
			"major" : 8,
			"minor" : 6,
			"revision" : 1,
			"architecture" : "x64",
			"modernui" : 1
		}
,
		"classnamespace" : "box",
		"rect" : [ 1821.0, 99.0, 1288.0, 907.0 ],
		"bglocked" : 0,
		"openinpresentation" : 0,
		"default_fontsize" : 12.0,
		"default_fontface" : 0,
		"default_fontname" : "Arial",
		"gridonopen" : 2,
		"gridsize" : [ 15.0, 15.0 ],
		"gridsnaponopen" : 1,
		"objectsnaponopen" : 1,
		"statusbarvisible" : 2,
		"toolbarvisible" : 1,
		"lefttoolbarpinned" : 0,
		"toptoolbarpinned" : 0,
		"righttoolbarpinned" : 0,
		"bottomtoolbarpinned" : 0,
		"toolbars_unpinned_last_save" : 0,
		"tallnewobj" : 0,
		"boxanimatetime" : 200,
		"enablehscroll" : 1,
		"enablevscroll" : 1,
		"devicewidth" : 0.0,
		"description" : "",
		"digest" : "",
		"tags" : "",
		"style" : "",
		"subpatcher_template" : "Untitled_template",
		"assistshowspatchername" : 0,
		"boxes" : [ 			{
				"box" : 				{
					"fontsize" : 16.0,
					"id" : "obj-173",
					"maxclass" : "comment",
					"numinlets" : 1,
					"numoutlets" : 0,
					"patching_rect" : [ 21.5, 874.0, 93.0, 24.0 ],
					"text" : "DIGITAL  "
				}

			}
, 			{
				"box" : 				{
					"id" : "obj-172",
					"linecount" : 2,
					"maxclass" : "comment",
					"numinlets" : 1,
					"numoutlets" : 0,
					"patching_rect" : [ 270.5, 906.0, 48.0, 33.0 ],
					"presentation_linecount" : 2,
					"text" : "servo pins"
				}

			}
, 			{
				"box" : 				{
					"id" : "obj-171",
					"linecount" : 2,
					"maxclass" : "comment",
					"numinlets" : 1,
					"numoutlets" : 0,
					"patching_rect" : [ 158.5, 906.0, 48.0, 33.0 ],
					"text" : "servo pins"
				}

			}
, 			{
				"box" : 				{
					"id" : "obj-169",
					"maxclass" : "message",
					"numinlets" : 2,
					"numoutlets" : 1,
					"outlettype" : [ "" ],
					"patching_rect" : [ 52.5, 1012.0, 127.0, 22.0 ],
					"text" : "/writeDigitalPins 2 0"
				}

			}
, 			{
				"box" : 				{
					"id" : "obj-168",
					"maxclass" : "toggle",
					"numinlets" : 1,
					"numoutlets" : 1,
					"outlettype" : [ "int" ],
					"parameter_enable" : 0,
					"patching_rect" : [ 21.5, 906.0, 24.0, 24.0 ]
				}

			}
, 			{
				"box" : 				{
					"id" : "obj-167",
					"maxclass" : "toggle",
					"numinlets" : 1,
					"numoutlets" : 1,
					"outlettype" : [ "int" ],
					"parameter_enable" : 0,
					"patching_rect" : [ 380.5, 906.0, 24.0, 24.0 ]
				}

			}
, 			{
				"box" : 				{
					"id" : "obj-166",
					"maxclass" : "toggle",
					"numinlets" : 1,
					"numoutlets" : 1,
					"outlettype" : [ "int" ],
					"parameter_enable" : 0,
					"patching_rect" : [ 352.5, 906.0, 24.0, 24.0 ]
				}

			}
, 			{
				"box" : 				{
					"id" : "obj-165",
					"maxclass" : "toggle",
					"numinlets" : 1,
					"numoutlets" : 1,
					"outlettype" : [ "int" ],
					"parameter_enable" : 0,
					"patching_rect" : [ 324.5, 906.0, 24.0, 24.0 ]
				}

			}
, 			{
				"box" : 				{
					"id" : "obj-162",
					"maxclass" : "toggle",
					"numinlets" : 1,
					"numoutlets" : 1,
					"outlettype" : [ "int" ],
					"parameter_enable" : 0,
					"patching_rect" : [ 241.5, 906.0, 24.0, 24.0 ]
				}

			}
, 			{
				"box" : 				{
					"id" : "obj-161",
					"maxclass" : "toggle",
					"numinlets" : 1,
					"numoutlets" : 1,
					"outlettype" : [ "int" ],
					"parameter_enable" : 0,
					"patching_rect" : [ 213.5, 906.0, 24.0, 24.0 ]
				}

			}
, 			{
				"box" : 				{
					"id" : "obj-158",
					"maxclass" : "toggle",
					"numinlets" : 1,
					"numoutlets" : 1,
					"outlettype" : [ "int" ],
					"parameter_enable" : 0,
					"patching_rect" : [ 130.5, 906.0, 24.0, 24.0 ]
				}

			}
, 			{
				"box" : 				{
					"id" : "obj-157",
					"maxclass" : "toggle",
					"numinlets" : 1,
					"numoutlets" : 1,
					"outlettype" : [ "int" ],
					"parameter_enable" : 0,
					"patching_rect" : [ 102.5, 906.0, 24.0, 24.0 ]
				}

			}
, 			{
				"box" : 				{
					"id" : "obj-156",
					"maxclass" : "toggle",
					"numinlets" : 1,
					"numoutlets" : 1,
					"outlettype" : [ "int" ],
					"parameter_enable" : 0,
					"patching_rect" : [ 48.5, 906.0, 24.0, 24.0 ]
				}

			}
, 			{
				"box" : 				{
					"id" : "obj-149",
					"maxclass" : "comment",
					"numinlets" : 1,
					"numoutlets" : 0,
					"patching_rect" : [ 66.5, 1053.0, 150.0, 20.0 ],
					"text" : "send to udpsend"
				}

			}
, 			{
				"box" : 				{
					"id" : "obj-150",
					"linecount" : 2,
					"maxclass" : "comment",
					"numinlets" : 1,
					"numoutlets" : 0,
					"patching_rect" : [ 185.5, 961.0, 210.0, 33.0 ],
					"presentation_linecount" : 2,
					"text" : "tag data with inlet number to format a number pair (pinNo Value)"
				}

			}
, 			{
				"box" : 				{
					"color" : [ 0.999993324279785, 0.999963343143463, 0.041014768183231, 1.0 ],
					"id" : "obj-152",
					"maxclass" : "newobj",
					"numinlets" : 1,
					"numoutlets" : 0,
					"patching_rect" : [ 21.5, 1052.0, 43.0, 22.0 ],
					"text" : "s write"
				}

			}
, 			{
				"box" : 				{
					"id" : "obj-153",
					"maxclass" : "newobj",
					"numinlets" : 14,
					"numoutlets" : 1,
					"outlettype" : [ "list" ],
					"patching_rect" : [ 21.5, 943.0, 376.0, 22.0 ],
					"text" : "funnel 14"
				}

			}
, 			{
				"box" : 				{
					"id" : "obj-154",
					"maxclass" : "toggle",
					"numinlets" : 1,
					"numoutlets" : 1,
					"outlettype" : [ "int" ],
					"parameter_enable" : 0,
					"patching_rect" : [ 74.5, 906.0, 24.0, 24.0 ]
				}

			}
, 			{
				"box" : 				{
					"id" : "obj-155",
					"maxclass" : "message",
					"numinlets" : 2,
					"numoutlets" : 1,
					"outlettype" : [ "" ],
					"patching_rect" : [ 21.5, 981.0, 127.0, 22.0 ],
					"text" : "/writeDigitalPins $1 $2"
				}

			}
, 			{
				"box" : 				{
					"id" : "obj-132",
					"maxclass" : "comment",
					"numinlets" : 1,
					"numoutlets" : 0,
					"patching_rect" : [ 776.0, 597.0, 150.0, 20.0 ],
					"text" : "filter out repetitions"
				}

			}
, 			{
				"box" : 				{
					"id" : "obj-131",
					"linecount" : 2,
					"maxclass" : "comment",
					"numinlets" : 1,
					"numoutlets" : 0,
					"patching_rect" : [ 757.0, 634.0, 150.0, 33.0 ],
					"text" : " example with a relay connected to pin 2"
				}

			}
, 			{
				"box" : 				{
					"id" : "obj-129",
					"maxclass" : "comment",
					"numinlets" : 1,
					"numoutlets" : 0,
					"patching_rect" : [ 1127.0, 74.0, 316.0, 20.0 ],
					"text" : "(Needs some optimizing for more speed and stability)"
				}

			}
, 			{
				"box" : 				{
					"id" : "obj-127",
					"linecount" : 4,
					"maxclass" : "comment",
					"numinlets" : 1,
					"numoutlets" : 0,
					"patching_rect" : [ 76.0, 408.0, 158.0, 60.0 ],
					"presentation_linecount" : 5,
					"text" : "send OSC adress /  port\nChange the IP to the one you arduino gets in the network (see serial monitor)"
				}

			}
, 			{
				"box" : 				{
					"fontsize" : 16.0,
					"id" : "obj-126",
					"maxclass" : "comment",
					"numinlets" : 1,
					"numoutlets" : 0,
					"patching_rect" : [ 21.5, 568.0, 93.0, 24.0 ],
					"text" : "SERVO  "
				}

			}
, 			{
				"box" : 				{
					"fontsize" : 16.0,
					"id" : "obj-124",
					"maxclass" : "comment",
					"numinlets" : 1,
					"numoutlets" : 0,
					"patching_rect" : [ 573.0, 425.0, 93.0, 24.0 ],
					"text" : "DIGITAL  "
				}

			}
, 			{
				"box" : 				{
					"fontsize" : 16.0,
					"id" : "obj-123",
					"maxclass" : "comment",
					"numinlets" : 1,
					"numoutlets" : 0,
					"patching_rect" : [ 738.0, 425.0, 188.0, 24.0 ],
					"text" : "ANALOG   Example"
				}

			}
, 			{
				"box" : 				{
					"id" : "obj-122",
					"maxclass" : "comment",
					"numinlets" : 1,
					"numoutlets" : 0,
					"patching_rect" : [ 525.0, 556.0, 73.0, 20.0 ],
					"text" : "examples"
				}

			}
, 			{
				"box" : 				{
					"id" : "obj-120",
					"linecount" : 8,
					"maxclass" : "comment",
					"numinlets" : 1,
					"numoutlets" : 0,
					"patching_rect" : [ 409.5, 57.0, 483.0, 114.0 ],
					"presentation_linecount" : 16,
					"text" : "This code lets read and write data via OSC on a arduino to all digital and analog pins. \nOnly pins 5 6 9 10 are declred for servo use so change the arduino code if you want to use these pins for digital IO.\nWorks and tested with Arduino wifi Rev2 and Max/MSP 8.6.1\n\nMake sure your comp and arduino can be on the same wifi network. \nFill out correct wifi credentials in arduino code and upload. \nThis basically has all functionalities the arduino Max Module has. "
				}

			}
, 			{
				"box" : 				{
					"fontsize" : 36.0,
					"id" : "obj-119",
					"maxclass" : "comment",
					"numinlets" : 1,
					"numoutlets" : 0,
					"patching_rect" : [ 409.5, 8.0, 463.0, 47.0 ],
					"presentation_linecount" : 3,
					"text" : "Arduino wifi Rev2 & OSC  "
				}

			}
, 			{
				"box" : 				{
					"id" : "obj-118",
					"linecount" : 3,
					"maxclass" : "comment",
					"numinlets" : 1,
					"numoutlets" : 0,
					"patching_rect" : [ 12.0, 14.0, 272.0, 60.0 ],
					"text" : "Code by Mark Meeuwenoord 2024\nArduino code base by Henry Vega and rewriten by Chat GTP & Mark M\n"
				}

			}
, 			{
				"box" : 				{
					"id" : "obj-116",
					"linecount" : 2,
					"maxclass" : "comment",
					"numinlets" : 1,
					"numoutlets" : 0,
					"patching_rect" : [ 254.0, 279.0, 150.0, 33.0 ],
					"text" : "speed of readout. change if stability issues occur"
				}

			}
, 			{
				"box" : 				{
					"id" : "obj-109",
					"linecount" : 5,
					"maxclass" : "comment",
					"numinlets" : 1,
					"numoutlets" : 0,
					"patching_rect" : [ 391.0, 442.0, 119.0, 74.0 ],
					"presentation_linecount" : 5,
					"text" : "digital pins readout \ncount from 0 \ndont use pins 5, 6, 9, 10. These are being used for servo"
				}

			}
, 			{
				"box" : 				{
					"fontsize" : 36.0,
					"id" : "obj-107",
					"maxclass" : "comment",
					"numinlets" : 1,
					"numoutlets" : 0,
					"patching_rect" : [ 1127.0, 25.0, 340.0, 47.0 ],
					"presentation_linecount" : 2,
					"text" : "Arduino code "
				}

			}
, 			{
				"box" : 				{
					"id" : "obj-106",
					"linecount" : 3,
					"maxclass" : "comment",
					"numinlets" : 1,
					"numoutlets" : 0,
					"patching_rect" : [ 72.0, 140.0, 260.0, 47.0 ],
					"text" : "Turn these toggles ON only if you wanna readout digital and/or anolog pins on your arduino"
				}

			}
, 			{
				"box" : 				{
					"fontsize" : 36.0,
					"id" : "obj-104",
					"maxclass" : "comment",
					"numinlets" : 1,
					"numoutlets" : 0,
					"patching_rect" : [ 72.0, 97.0, 196.5, 47.0 ],
					"text" : "READOUT "
				}

			}
, 			{
				"box" : 				{
					"id" : "obj-102",
					"linecount" : 6,
					"maxclass" : "comment",
					"numinlets" : 1,
					"numoutlets" : 0,
					"patching_rect" : [ 18.0, 594.0, 216.0, 87.0 ],
					"text" : "Write some Servo value's to pins declared as a servo pin. See arduino code and change if you dont want these servo pins.\nPin 5, 6, 9, 10 are declared as servo pins"
				}

			}
, 			{
				"box" : 				{
					"id" : "obj-100",
					"maxclass" : "comment",
					"numinlets" : 1,
					"numoutlets" : 0,
					"patching_rect" : [ 240.0, 693.0, 51.0, 20.0 ],
					"text" : "servo 4 "
				}

			}
, 			{
				"box" : 				{
					"id" : "obj-99",
					"maxclass" : "comment",
					"numinlets" : 1,
					"numoutlets" : 0,
					"patching_rect" : [ 184.0, 693.0, 51.0, 20.0 ],
					"text" : "servo 3 "
				}

			}
, 			{
				"box" : 				{
					"id" : "obj-98",
					"maxclass" : "comment",
					"numinlets" : 1,
					"numoutlets" : 0,
					"patching_rect" : [ 131.0, 693.0, 51.0, 20.0 ],
					"text" : "servo 2 "
				}

			}
, 			{
				"box" : 				{
					"id" : "obj-97",
					"maxclass" : "comment",
					"numinlets" : 1,
					"numoutlets" : 0,
					"patching_rect" : [ 78.0, 693.0, 49.0, 20.0 ],
					"text" : "servo 1 "
				}

			}
, 			{
				"box" : 				{
					"id" : "obj-95",
					"maxclass" : "comment",
					"numinlets" : 1,
					"numoutlets" : 0,
					"patching_rect" : [ 66.0, 811.0, 150.0, 20.0 ],
					"text" : "send to udpsend"
				}

			}
, 			{
				"box" : 				{
					"id" : "obj-94",
					"maxclass" : "comment",
					"numinlets" : 1,
					"numoutlets" : 0,
					"patching_rect" : [ 776.0, 782.0, 150.0, 20.0 ],
					"text" : "send to udpsend"
				}

			}
, 			{
				"box" : 				{
					"id" : "obj-92",
					"linecount" : 2,
					"maxclass" : "comment",
					"numinlets" : 1,
					"numoutlets" : 0,
					"patching_rect" : [ 868.5, 676.5, 207.0, 33.0 ],
					"text" : "tag data with inlet number to format a number pair (pinNo Value)"
				}

			}
, 			{
				"box" : 				{
					"id" : "obj-90",
					"linecount" : 3,
					"maxclass" : "comment",
					"numinlets" : 1,
					"numoutlets" : 0,
					"patching_rect" : [ 837.0, 723.0, 150.0, 47.0 ],
					"text" : "format a message to send to the arduino as OSC.\n/adress pinNo Value"
				}

			}
, 			{
				"box" : 				{
					"id" : "obj-88",
					"linecount" : 3,
					"maxclass" : "comment",
					"numinlets" : 1,
					"numoutlets" : 0,
					"patching_rect" : [ 190.0, 202.0, 71.5, 47.0 ],
					"presentation_linecount" : 3,
					"text" : "read analog pins ON/OFF"
				}

			}
, 			{
				"box" : 				{
					"id" : "obj-87",
					"linecount" : 3,
					"maxclass" : "comment",
					"numinlets" : 1,
					"numoutlets" : 0,
					"patching_rect" : [ 72.0, 202.0, 71.5, 47.0 ],
					"text" : "read digtal pins ON/OFF"
				}

			}
, 			{
				"box" : 				{
					"id" : "obj-85",
					"linecount" : 3,
					"maxclass" : "comment",
					"numinlets" : 1,
					"numoutlets" : 0,
					"patching_rect" : [ 776.0, 533.0, 150.0, 47.0 ],
					"text" : "some example logic to set trehhold trigger for a sensor input"
				}

			}
, 			{
				"box" : 				{
					"id" : "obj-83",
					"maxclass" : "comment",
					"numinlets" : 1,
					"numoutlets" : 0,
					"patching_rect" : [ 781.0, 505.0, 150.0, 20.0 ],
					"text" : "analog value on pin A0"
				}

			}
, 			{
				"box" : 				{
					"id" : "obj-82",
					"linecount" : 2,
					"maxclass" : "comment",
					"numinlets" : 1,
					"numoutlets" : 0,
					"patching_rect" : [ 809.0, 452.0, 150.0, 33.0 ],
					"text" : "analog pins readout // here pinNo A0"
				}

			}
, 			{
				"box" : 				{
					"id" : "obj-80",
					"maxclass" : "comment",
					"numinlets" : 1,
					"numoutlets" : 0,
					"patching_rect" : [ 391.0, 410.0, 150.0, 20.0 ],
					"text" : "filter out repetitions"
				}

			}
, 			{
				"box" : 				{
					"id" : "obj-79",
					"maxclass" : "comment",
					"numinlets" : 1,
					"numoutlets" : 0,
					"patching_rect" : [ 573.0, 306.0, 150.0, 20.0 ],
					"text" : "receive OSC  / port"
				}

			}
, 			{
				"box" : 				{
					"id" : "obj-77",
					"maxclass" : "comment",
					"numinlets" : 1,
					"numoutlets" : 0,
					"patching_rect" : [ 561.0, 217.0, 66.0, 20.0 ],
					"text" : "ON/ OFF "
				}

			}
, 			{
				"box" : 				{
					"id" : "obj-75",
					"linecount" : 176,
					"maxclass" : "comment",
					"numinlets" : 1,
					"numoutlets" : 0,
					"patching_rect" : [ 1132.0, 116.0, 922.0, 2379.0 ],
					"text" : "// By Mark Meeuwenoord, Henry Vega & Chat GTP 2024\n\n#include <WiFi.h>\n#include <OSCMessage.h>\n#include <Servo.h>\n\nconst char *ssid = \"wifiname\";             // Your WiFi SSID\nconst char *password = \"psww\";    // Your WiFi password\nIPAddress localIP(192, 168, 1, 2); // Your computer's IP address\nint sendPort = 8000;                  // Port to send OSC messages\nint receivePort = 9999;               // Port to receive OSC messages\n\nWiFiUDP Udp;\n\nServo servo1;\nServo servo2;\nServo servo3;\nServo servo4;\n\nvoid setup() {\n  Serial.begin(115200);\n  delay(10);\n\n  // Connect to Wi-Fi\n  Serial.println();\n  Serial.print(\"Connecting to \");\n  Serial.println(ssid);\n  WiFi.begin(ssid, password);\n  while (WiFi.status() != WL_CONNECTED) {\n    delay(1000);\n    Serial.print(\".\");\n  }\n  Serial.println(\"\");\n  Serial.println(\"WiFi connected\");\n  Serial.print(\"Local IP Address: \"); // check serial monitor in Arduino IDE to see arduino's IP adress. you need that in the udpsend setup in Max\n  Serial.println(WiFi.localIP());\n\n  // Start the UDP connection\n  Udp.begin(receivePort);\n\n  // Attach servos to pins\n  servo1.attach(5);\n  servo2.attach(6);\n  servo3.attach(9);\n  servo4.attach(10);\n}\n\nvoid loop() {\n  // Check for incoming OSC messages\n  int packetSize = Udp.parsePacket();\n  if (packetSize) {\n    OSCMessage msgIn;\n    while (packetSize--) {\n      msgIn.fill(Udp.read());\n    }\n\n    if (!msgIn.hasError()) {\n      // Get the OSC address\n      const char *address = msgIn.getAddress();\n      Serial.print(\"Received OSC message with address: \");\n      Serial.println(address);\n\n      // Process the OSC message\n      if (strcmp(address, \"/readDigitalPins\") == 0) {\n        readDigitalPins();\n      } else if (strcmp(address, \"/readAnalogPins\") == 0) {\n        readAnalogPins();\n      } else if (strcmp(address, \"/writeDigitalPins\") == 0) {\n        writeDigitalPins(msgIn);\n      } else if (strcmp(address, \"/writeAnalogPins\") == 0) {\n        writeAnalogPins(msgIn);\n      } else if (strcmp(address, \"/writeServoPins\") == 0) {\n        writeServoPins(msgIn);\n      } else {\n        Serial.println(\"Unsupported OSC address\");\n      }\n    } else {\n      Serial.println(\"Error parsing OSC message\");\n    }\n  }\n}\n\n// Function to read digital pins and send their values via OSC\nvoid readDigitalPins() {\n  OSCMessage msgOut(\"/digitalPinsData\");\n  for (int pin = 0; pin < 13; pin++) {\n    if (pin < 14) {\n      msgOut.add(digitalRead(pin));\n    }\n  }\n  Udp.beginPacket(localIP, sendPort);\n  msgOut.send(Udp);\n  Udp.endPacket();\n}\n\n// Function to read analog pins and send their values via OSC\nvoid readAnalogPins() {\n  OSCMessage msgOut(\"/analogPinsData\");\n  for (int pin = A0; pin < A5; pin++) {\n    msgOut.add(analogRead(pin));\n  }\n  Udp.beginPacket(localIP, sendPort);\n  msgOut.send(Udp);\n  Udp.endPacket();\n}\n\n// Function to write digital pins based on received OSC message\nvoid writeDigitalPins(OSCMessage &msgIn) {\n  int numArgs = msgIn.size();\n  if (numArgs % 2 != 0) {\n    Serial.println(\"Invalid number of arguments\");\n    return;\n  }\n\n  for (int i = 0; i < numArgs; i += 2) {\n    int pin = msgIn.getInt(i);\n    int value = msgIn.getInt(i + 1);\n    if (pin >= 0 && pin < 14) {\n      pinMode(pin, OUTPUT);\n      digitalWrite(pin, value);\n    } else {\n      Serial.println(\"Invalid digital pin number\");\n    }\n  }\n}\n\n// Function to write analog pins based on received OSC message\nvoid writeAnalogPins(OSCMessage &msgIn) {\n  int numArgs = msgIn.size();\n  if (numArgs % 2 != 0) {\n    Serial.println(\"Invalid number of arguments\");\n    return;\n  }\n\n  for (int i = 0; i < numArgs; i += 2) {\n    int pin = msgIn.getInt(i);\n    int value = msgIn.getInt(i + 1);\n    if (pin >= A0 && pin < A5) {\n      analogWrite(pin, value);\n    } else {\n      Serial.println(\"Invalid analog pin number\");\n    }\n  }\n}\n\n// Function to write servo pins based on received OSC message\nvoid writeServoPins(OSCMessage &msgIn) {\n  int numArgs = msgIn.size();\n  if (numArgs % 2 != 0 || numArgs > 8) { // Assuming pairs of pin and angle, maximum 4 servos\n    Serial.println(\"Invalid number of arguments\");\n    return;\n  }\n\n  for (int i = 0; i < numArgs; i += 2) {\n    int servoIndex = i / 2;\n    int pin = msgIn.getInt(i);\n    int angle = msgIn.getInt(i + 1);\n    switch (servoIndex) {\n      case 0:\n        servo1.write(angle);\n        break;\n      case 1:\n        servo2.write(angle);\n        break;\n      case 2:\n        servo3.write(angle);\n        break;\n      case 3:\n        servo4.write(angle);\n        break;\n      default:\n        Serial.println(\"Invalid servo index\");\n        break;\n    }\n  }\n}\n"
				}

			}
, 			{
				"box" : 				{
					"color" : [ 0.999993324279785, 0.999963343143463, 0.041014768183231, 1.0 ],
					"id" : "obj-69",
					"maxclass" : "newobj",
					"numinlets" : 1,
					"numoutlets" : 0,
					"patching_rect" : [ 18.0, 809.0, 43.0, 22.0 ],
					"text" : "s write"
				}

			}
, 			{
				"box" : 				{
					"id" : "obj-68",
					"maxclass" : "number",
					"numinlets" : 1,
					"numoutlets" : 2,
					"outlettype" : [ "", "bang" ],
					"parameter_enable" : 1,
					"patching_rect" : [ 231.0, 721.0, 50.0, 22.0 ],
					"saved_attribute_attributes" : 					{
						"valueof" : 						{
							"parameter_initial" : [ 90 ],
							"parameter_initial_enable" : 1,
							"parameter_invisible" : 1,
							"parameter_longname" : "number",
							"parameter_modmode" : 0,
							"parameter_shortname" : "number",
							"parameter_type" : 3
						}

					}
,
					"varname" : "number"
				}

			}
, 			{
				"box" : 				{
					"id" : "obj-67",
					"maxclass" : "number",
					"numinlets" : 1,
					"numoutlets" : 2,
					"outlettype" : [ "", "bang" ],
					"parameter_enable" : 1,
					"patching_rect" : [ 178.0, 721.0, 50.0, 22.0 ],
					"saved_attribute_attributes" : 					{
						"valueof" : 						{
							"parameter_initial" : [ 90 ],
							"parameter_initial_enable" : 1,
							"parameter_invisible" : 1,
							"parameter_longname" : "number[1]",
							"parameter_modmode" : 0,
							"parameter_shortname" : "number[1]",
							"parameter_type" : 3
						}

					}
,
					"varname" : "number[1]"
				}

			}
, 			{
				"box" : 				{
					"id" : "obj-66",
					"maxclass" : "number",
					"numinlets" : 1,
					"numoutlets" : 2,
					"outlettype" : [ "", "bang" ],
					"parameter_enable" : 1,
					"patching_rect" : [ 123.0, 721.0, 50.0, 22.0 ],
					"saved_attribute_attributes" : 					{
						"valueof" : 						{
							"parameter_initial" : [ 90 ],
							"parameter_initial_enable" : 1,
							"parameter_invisible" : 1,
							"parameter_longname" : "number[2]",
							"parameter_modmode" : 0,
							"parameter_shortname" : "number[2]",
							"parameter_type" : 3
						}

					}
,
					"varname" : "number[2]"
				}

			}
, 			{
				"box" : 				{
					"id" : "obj-65",
					"maxclass" : "number",
					"numinlets" : 1,
					"numoutlets" : 2,
					"outlettype" : [ "", "bang" ],
					"parameter_enable" : 1,
					"patching_rect" : [ 69.0, 721.0, 50.0, 22.0 ],
					"saved_attribute_attributes" : 					{
						"valueof" : 						{
							"parameter_initial" : [ 90 ],
							"parameter_initial_enable" : 1,
							"parameter_invisible" : 1,
							"parameter_longname" : "number[3]",
							"parameter_modmode" : 0,
							"parameter_shortname" : "number[3]",
							"parameter_type" : 3
						}

					}
,
					"varname" : "number[3]"
				}

			}
, 			{
				"box" : 				{
					"id" : "obj-63",
					"maxclass" : "newobj",
					"numinlets" : 9,
					"numoutlets" : 1,
					"outlettype" : [ "" ],
					"patching_rect" : [ 18.0, 764.0, 221.0, 22.0 ],
					"text" : "pak /writeServoPins 0 90 1 90 2 90 3 90"
				}

			}
, 			{
				"box" : 				{
					"color" : [ 0.999993324279785, 0.999963343143463, 0.041014768183231, 1.0 ],
					"id" : "obj-48",
					"maxclass" : "newobj",
					"numinlets" : 0,
					"numoutlets" : 1,
					"outlettype" : [ "" ],
					"patching_rect" : [ 13.0, 323.0, 41.0, 22.0 ],
					"text" : "r write"
				}

			}
, 			{
				"box" : 				{
					"color" : [ 0.999993324279785, 0.999963343143463, 0.041014768183231, 1.0 ],
					"id" : "obj-47",
					"maxclass" : "newobj",
					"numinlets" : 1,
					"numoutlets" : 0,
					"patching_rect" : [ 704.0, 781.0, 43.0, 22.0 ],
					"text" : "s write"
				}

			}
, 			{
				"box" : 				{
					"id" : "obj-44",
					"maxclass" : "newobj",
					"numinlets" : 14,
					"numoutlets" : 1,
					"outlettype" : [ "list" ],
					"patching_rect" : [ 704.0, 682.0, 155.5, 22.0 ],
					"text" : "funnel 14"
				}

			}
, 			{
				"box" : 				{
					"id" : "obj-42",
					"maxclass" : "newobj",
					"numinlets" : 2,
					"numoutlets" : 2,
					"outlettype" : [ "", "" ],
					"patching_rect" : [ 505.0, 410.0, 60.0, 22.0 ],
					"text" : "zl change"
				}

			}
, 			{
				"box" : 				{
					"id" : "obj-39",
					"maxclass" : "toggle",
					"numinlets" : 1,
					"numoutlets" : 1,
					"outlettype" : [ "int" ],
					"parameter_enable" : 0,
					"patching_rect" : [ 725.0, 634.0, 24.0, 24.0 ]
				}

			}
, 			{
				"box" : 				{
					"id" : "obj-37",
					"maxclass" : "newobj",
					"numinlets" : 1,
					"numoutlets" : 3,
					"outlettype" : [ "", "int", "int" ],
					"patching_rect" : [ 725.0, 596.0, 48.0, 22.0 ],
					"text" : "change"
				}

			}
, 			{
				"box" : 				{
					"id" : "obj-36",
					"maxclass" : "newobj",
					"numinlets" : 2,
					"numoutlets" : 1,
					"outlettype" : [ "int" ],
					"patching_rect" : [ 725.0, 541.0, 39.0, 22.0 ],
					"text" : "> 100"
				}

			}
, 			{
				"box" : 				{
					"id" : "obj-33",
					"maxclass" : "newobj",
					"numinlets" : 1,
					"numoutlets" : 3,
					"outlettype" : [ "", "int", "int" ],
					"patching_rect" : [ 582.0, 497.0, 48.0, 22.0 ],
					"text" : "change"
				}

			}
, 			{
				"box" : 				{
					"id" : "obj-34",
					"maxclass" : "toggle",
					"numinlets" : 1,
					"numoutlets" : 1,
					"outlettype" : [ "int" ],
					"parameter_enable" : 0,
					"patching_rect" : [ 582.0, 527.0, 24.0, 24.0 ]
				}

			}
, 			{
				"box" : 				{
					"id" : "obj-28",
					"maxclass" : "message",
					"numinlets" : 2,
					"numoutlets" : 1,
					"outlettype" : [ "" ],
					"patching_rect" : [ 704.0, 723.0, 127.0, 22.0 ],
					"text" : "/writeDigitalPins $1 $2"
				}

			}
, 			{
				"box" : 				{
					"id" : "obj-26",
					"maxclass" : "number",
					"numinlets" : 1,
					"numoutlets" : 2,
					"outlettype" : [ "", "bang" ],
					"parameter_enable" : 0,
					"patching_rect" : [ 725.0, 504.0, 50.0, 22.0 ]
				}

			}
, 			{
				"box" : 				{
					"id" : "obj-23",
					"maxclass" : "newobj",
					"numinlets" : 1,
					"numoutlets" : 7,
					"outlettype" : [ "", "", "", "", "", "", "" ],
					"patching_rect" : [ 725.0, 451.0, 82.0, 22.0 ],
					"text" : "unjoin 6"
				}

			}
, 			{
				"box" : 				{
					"id" : "obj-18",
					"maxclass" : "toggle",
					"numinlets" : 1,
					"numoutlets" : 1,
					"outlettype" : [ "int" ],
					"parameter_enable" : 0,
					"patching_rect" : [ 190.0, 254.0, 24.0, 24.0 ]
				}

			}
, 			{
				"box" : 				{
					"id" : "obj-19",
					"maxclass" : "newobj",
					"numinlets" : 2,
					"numoutlets" : 1,
					"outlettype" : [ "bang" ],
					"patching_rect" : [ 190.0, 288.0, 56.0, 22.0 ],
					"text" : "metro 50"
				}

			}
, 			{
				"box" : 				{
					"id" : "obj-20",
					"maxclass" : "message",
					"numinlets" : 2,
					"numoutlets" : 1,
					"outlettype" : [ "" ],
					"patching_rect" : [ 190.0, 323.0, 97.0, 22.0 ],
					"presentation_linecount" : 2,
					"text" : "/readAnalogPins"
				}

			}
, 			{
				"box" : 				{
					"id" : "obj-17",
					"maxclass" : "newobj",
					"numinlets" : 1,
					"numoutlets" : 3,
					"outlettype" : [ "", "int", "int" ],
					"patching_rect" : [ 525.0, 497.0, 48.0, 22.0 ],
					"text" : "change"
				}

			}
, 			{
				"box" : 				{
					"id" : "obj-16",
					"maxclass" : "toggle",
					"numinlets" : 1,
					"numoutlets" : 1,
					"outlettype" : [ "int" ],
					"parameter_enable" : 0,
					"patching_rect" : [ 525.0, 527.0, 24.0, 24.0 ]
				}

			}
, 			{
				"box" : 				{
					"id" : "obj-14",
					"maxclass" : "newobj",
					"numinlets" : 1,
					"numoutlets" : 14,
					"outlettype" : [ "", "", "", "", "", "", "", "", "", "", "", "", "", "" ],
					"patching_rect" : [ 505.0, 451.0, 155.5, 22.0 ],
					"text" : "unjoin 13"
				}

			}
, 			{
				"box" : 				{
					"id" : "obj-12",
					"maxclass" : "newobj",
					"numinlets" : 3,
					"numoutlets" : 3,
					"outlettype" : [ "", "", "" ],
					"patching_rect" : [ 505.0, 379.0, 383.0, 22.0 ],
					"text" : "route /digitalPinsData /analogPinsData"
				}

			}
, 			{
				"box" : 				{
					"id" : "obj-11",
					"maxclass" : "toggle",
					"numinlets" : 1,
					"numoutlets" : 1,
					"outlettype" : [ "int" ],
					"parameter_enable" : 0,
					"patching_rect" : [ 76.0, 254.0, 24.0, 24.0 ]
				}

			}
, 			{
				"box" : 				{
					"id" : "obj-9",
					"maxclass" : "newobj",
					"numinlets" : 2,
					"numoutlets" : 1,
					"outlettype" : [ "bang" ],
					"patching_rect" : [ 76.0, 288.0, 56.0, 22.0 ],
					"text" : "metro 50"
				}

			}
, 			{
				"box" : 				{
					"id" : "obj-8",
					"maxclass" : "message",
					"numinlets" : 2,
					"numoutlets" : 1,
					"outlettype" : [ "" ],
					"patching_rect" : [ 76.0, 323.0, 93.0, 22.0 ],
					"text" : "/readDigitalPins"
				}

			}
, 			{
				"box" : 				{
					"id" : "obj-5",
					"maxclass" : "toggle",
					"numinlets" : 1,
					"numoutlets" : 1,
					"outlettype" : [ "int" ],
					"parameter_enable" : 1,
					"patching_rect" : [ 505.0, 204.0, 45.0, 45.0 ],
					"saved_attribute_attributes" : 					{
						"valueof" : 						{
							"parameter_enum" : [ "off", "on" ],
							"parameter_initial" : [ 1.0 ],
							"parameter_initial_enable" : 1,
							"parameter_longname" : "toggle",
							"parameter_mmax" : 1,
							"parameter_modmode" : 0,
							"parameter_shortname" : "toggle",
							"parameter_type" : 2
						}

					}
,
					"varname" : "toggle"
				}

			}
, 			{
				"box" : 				{
					"id" : "obj-3",
					"maxclass" : "newobj",
					"numinlets" : 2,
					"numoutlets" : 1,
					"outlettype" : [ "" ],
					"patching_rect" : [ 505.0, 333.0, 52.0, 22.0 ],
					"text" : "gate 1 1"
				}

			}
, 			{
				"box" : 				{
					"color" : [ 0.131302490830421, 0.99969744682312, 0.023593783378601, 1.0 ],
					"id" : "obj-41",
					"maxclass" : "newobj",
					"numinlets" : 1,
					"numoutlets" : 0,
					"patching_rect" : [ 76.0, 377.0, 171.0, 22.0 ],
					"text" : "udpsend 192.168.188.29 9999"
				}

			}
, 			{
				"box" : 				{
					"color" : [ 0.986251711845398, 0.00723597407341, 0.02742300927639, 1.0 ],
					"id" : "obj-1",
					"maxclass" : "newobj",
					"numinlets" : 1,
					"numoutlets" : 1,
					"outlettype" : [ "" ],
					"patching_rect" : [ 538.0, 279.0, 97.0, 22.0 ],
					"text" : "udpreceive 8000"
				}

			}
 ],
		"lines" : [ 			{
				"patchline" : 				{
					"destination" : [ "obj-3", 1 ],
					"source" : [ "obj-1", 0 ]
				}

			}
, 			{
				"patchline" : 				{
					"destination" : [ "obj-9", 0 ],
					"source" : [ "obj-11", 0 ]
				}

			}
, 			{
				"patchline" : 				{
					"destination" : [ "obj-23", 0 ],
					"source" : [ "obj-12", 1 ]
				}

			}
, 			{
				"patchline" : 				{
					"destination" : [ "obj-42", 0 ],
					"source" : [ "obj-12", 0 ]
				}

			}
, 			{
				"patchline" : 				{
					"destination" : [ "obj-17", 0 ],
					"source" : [ "obj-14", 2 ]
				}

			}
, 			{
				"patchline" : 				{
					"destination" : [ "obj-33", 0 ],
					"source" : [ "obj-14", 4 ]
				}

			}
, 			{
				"patchline" : 				{
					"destination" : [ "obj-155", 0 ],
					"source" : [ "obj-153", 0 ]
				}

			}
, 			{
				"patchline" : 				{
					"destination" : [ "obj-153", 2 ],
					"source" : [ "obj-154", 0 ]
				}

			}
, 			{
				"patchline" : 				{
					"destination" : [ "obj-152", 0 ],
					"order" : 1,
					"source" : [ "obj-155", 0 ]
				}

			}
, 			{
				"patchline" : 				{
					"destination" : [ "obj-169", 1 ],
					"order" : 0,
					"source" : [ "obj-155", 0 ]
				}

			}
, 			{
				"patchline" : 				{
					"destination" : [ "obj-153", 1 ],
					"source" : [ "obj-156", 0 ]
				}

			}
, 			{
				"patchline" : 				{
					"destination" : [ "obj-153", 3 ],
					"source" : [ "obj-157", 0 ]
				}

			}
, 			{
				"patchline" : 				{
					"destination" : [ "obj-153", 4 ],
					"source" : [ "obj-158", 0 ]
				}

			}
, 			{
				"patchline" : 				{
					"destination" : [ "obj-153", 7 ],
					"source" : [ "obj-161", 0 ]
				}

			}
, 			{
				"patchline" : 				{
					"destination" : [ "obj-153", 8 ],
					"source" : [ "obj-162", 0 ]
				}

			}
, 			{
				"patchline" : 				{
					"destination" : [ "obj-153", 11 ],
					"source" : [ "obj-165", 0 ]
				}

			}
, 			{
				"patchline" : 				{
					"destination" : [ "obj-153", 12 ],
					"source" : [ "obj-166", 0 ]
				}

			}
, 			{
				"patchline" : 				{
					"destination" : [ "obj-153", 13 ],
					"source" : [ "obj-167", 0 ]
				}

			}
, 			{
				"patchline" : 				{
					"destination" : [ "obj-153", 0 ],
					"source" : [ "obj-168", 0 ]
				}

			}
, 			{
				"patchline" : 				{
					"destination" : [ "obj-16", 0 ],
					"source" : [ "obj-17", 0 ]
				}

			}
, 			{
				"patchline" : 				{
					"destination" : [ "obj-19", 0 ],
					"source" : [ "obj-18", 0 ]
				}

			}
, 			{
				"patchline" : 				{
					"destination" : [ "obj-20", 0 ],
					"source" : [ "obj-19", 0 ]
				}

			}
, 			{
				"patchline" : 				{
					"destination" : [ "obj-41", 0 ],
					"source" : [ "obj-20", 0 ]
				}

			}
, 			{
				"patchline" : 				{
					"destination" : [ "obj-26", 0 ],
					"source" : [ "obj-23", 0 ]
				}

			}
, 			{
				"patchline" : 				{
					"destination" : [ "obj-36", 0 ],
					"source" : [ "obj-26", 0 ]
				}

			}
, 			{
				"patchline" : 				{
					"destination" : [ "obj-47", 0 ],
					"source" : [ "obj-28", 0 ]
				}

			}
, 			{
				"patchline" : 				{
					"destination" : [ "obj-12", 0 ],
					"source" : [ "obj-3", 0 ]
				}

			}
, 			{
				"patchline" : 				{
					"destination" : [ "obj-34", 0 ],
					"source" : [ "obj-33", 0 ]
				}

			}
, 			{
				"patchline" : 				{
					"destination" : [ "obj-37", 0 ],
					"source" : [ "obj-36", 0 ]
				}

			}
, 			{
				"patchline" : 				{
					"destination" : [ "obj-39", 0 ],
					"source" : [ "obj-37", 0 ]
				}

			}
, 			{
				"patchline" : 				{
					"destination" : [ "obj-44", 2 ],
					"source" : [ "obj-39", 0 ]
				}

			}
, 			{
				"patchline" : 				{
					"destination" : [ "obj-14", 0 ],
					"source" : [ "obj-42", 0 ]
				}

			}
, 			{
				"patchline" : 				{
					"destination" : [ "obj-28", 0 ],
					"source" : [ "obj-44", 0 ]
				}

			}
, 			{
				"patchline" : 				{
					"destination" : [ "obj-41", 0 ],
					"source" : [ "obj-48", 0 ]
				}

			}
, 			{
				"patchline" : 				{
					"destination" : [ "obj-3", 0 ],
					"source" : [ "obj-5", 0 ]
				}

			}
, 			{
				"patchline" : 				{
					"destination" : [ "obj-69", 0 ],
					"source" : [ "obj-63", 0 ]
				}

			}
, 			{
				"patchline" : 				{
					"destination" : [ "obj-63", 2 ],
					"source" : [ "obj-65", 0 ]
				}

			}
, 			{
				"patchline" : 				{
					"destination" : [ "obj-63", 4 ],
					"source" : [ "obj-66", 0 ]
				}

			}
, 			{
				"patchline" : 				{
					"destination" : [ "obj-63", 6 ],
					"source" : [ "obj-67", 0 ]
				}

			}
, 			{
				"patchline" : 				{
					"destination" : [ "obj-63", 8 ],
					"source" : [ "obj-68", 0 ]
				}

			}
, 			{
				"patchline" : 				{
					"destination" : [ "obj-41", 0 ],
					"source" : [ "obj-8", 0 ]
				}

			}
, 			{
				"patchline" : 				{
					"destination" : [ "obj-8", 0 ],
					"source" : [ "obj-9", 0 ]
				}

			}
 ],
		"parameters" : 		{
			"obj-5" : [ "toggle", "toggle", 0 ],
			"obj-65" : [ "number[3]", "number[3]", 0 ],
			"obj-66" : [ "number[2]", "number[2]", 0 ],
			"obj-67" : [ "number[1]", "number[1]", 0 ],
			"obj-68" : [ "number", "number", 0 ],
			"parameterbanks" : 			{
				"0" : 				{
					"index" : 0,
					"name" : "",
					"parameters" : [ "-", "-", "-", "-", "-", "-", "-", "-" ]
				}

			}
,
			"inherited_shortname" : 1
		}
,
		"dependency_cache" : [  ],
		"autosave" : 0
	}

}
